<mxfile host="app.diagrams.net" modified="2024-02-08T15:20:46.822Z" agent="Mozilla/5.0 (Windows NT 10.0; Win64; x64) AppleWebKit/537.36 (KHTML, like Gecko) Chrome/109.0.0.0 Safari/537.36" version="23.1.1" etag="FianSoV67E_5bZ_n0f7j" type="github">
  <diagram name="第 1 页" id="5SDLZTdB81DL5kM8xQA1">
    <mxGraphModel>
      <root>
        <mxCell id="0" />
        <mxCell id="1" parent="0" />
      </root>
    </mxGraphModel>
  </diagram>
</mxfile>
